<svg xmlns="http://www.w3.org/2000/svg" width="840" height="185" viewBox="0 0 840 185" fill="none">
  <style>
    .bg { fill: #161b22; stroke: #30363d; }
    .divider { stroke: #30363d; }
    .track { fill: #21262d; }
    .bar-normal { fill: #FB8C00; fill-opacity: 0.45; }
    .bar-peak { fill: #FB8C00; }
    .header-label { font-family: -apple-system, BlinkMacSystemFont, "Segoe UI", "Noto Sans", Helvetica, Arial, sans-serif; font-size: 11px; font-weight: 700; fill: #FB8C00; letter-spacing: 0.8px; }
    .sub-label { font-family: -apple-system, BlinkMacSystemFont, "Segoe UI", Roboto, Helvetica, Arial, sans-serif; font-size: 11px; fill: #9E9E9E; }
    .row-name { font-family: -apple-system, BlinkMacSystemFont, "Segoe UI", Roboto, Helvetica, Arial, sans-serif; font-size: 12px; fill: #E4E2E2; }
    .val-text { font-family: ui-monospace, SFMono-Regular, "SF Mono", Menlo, Consolas, "Liberation Mono", monospace; font-size: 11px; font-weight: 600; fill: #FEFEFE; }
    .val-muted { fill: #9E9E9E; font-weight: 400; }
    .day-text { font-family: -apple-system, BlinkMacSystemFont, "Segoe UI", Roboto, Helvetica, Arial, sans-serif; font-size: 11px; font-weight: 500; fill: #9E9E9E; }
    .day-text-peak { font-family: -apple-system, BlinkMacSystemFont, "Segoe UI", Roboto, Helvetica, Arial, sans-serif; font-size: 11px; font-weight: 700; fill: #FB8C00; }
  </style>
  <rect x="0.5" y="0.5" width="839" height="184" rx="6" class="bg" stroke-width="1" />
  <text x="24" y="27" class="header-label">TIME OF DAY</text>
  <text x="396" y="27" text-anchor="end" class="sub-label">Karachi Time (PKT)</text>
  <text x="444" y="27" class="header-label">DAY OF WEEK</text>
  <text x="816" y="27" text-anchor="end" class="sub-label">Peak: Tue (183 commits)</text>
  <line x1="24" y1="38" x2="816" y2="38" class="divider" stroke-width="1" stroke-opacity="0.6" />
  <line x1="420" y1="18" x2="420" y2="167" class="divider" stroke-width="1" stroke-opacity="0.6" />
  <text x="24" y="61" class="row-name">Morning</text>
  <rect x="110" y="52" width="170" height="10" rx="5" class="track" />
  <rect x="110" y="52" width="11.1" height="10" rx="5" class="bar-normal" />
  <text x="294" y="61" class="val-text">58 <tspan class="val-muted">(6.5%)</tspan></text>
  <text x="24" y="89" class="row-name">Afternoon</text>
  <rect x="110" y="80" width="170" height="10" rx="5" class="track" />
  <rect x="110" y="80" width="64.5" height="10" rx="5" class="bar-peak" />
  <text x="294" y="89" class="val-text">336 <tspan class="val-muted">(37.9%)</tspan></text>
  <text x="24" y="117" class="row-name">Evening</text>
  <rect x="110" y="108" width="170" height="10" rx="5" class="track" />
  <rect x="110" y="108" width="51.8" height="10" rx="5" class="bar-normal" />
  <text x="294" y="117" class="val-text">270 <tspan class="val-muted">(30.5%)</tspan></text>
  <text x="24" y="145" class="row-name">Night</text>
  <rect x="110" y="136" width="170" height="10" rx="5" class="track" />
  <rect x="110" y="136" width="42.6" height="10" rx="5" class="bar-normal" />
  <text x="294" y="145" class="val-text">222 <tspan class="val-muted">(25.1%)</tspan></text>
  <text x="461.0" y="78.0" text-anchor="middle" class="val-text" style="fill: #9E9E9E;">142</text>
  <rect x="444.0" y="66" width="34" height="76" rx="4" class="track" />
  <rect x="444.0" y="83.0" width="34" height="59.0" rx="4" class="bar-normal" />
  <text x="461.0" y="160" text-anchor="middle" class="day-text">Mon</text>
  <text x="517.3" y="61.0" text-anchor="middle" class="val-text" style="fill: #FB8C00; font-weight: 700;">183</text>
  <rect x="500.3" y="66" width="34" height="76" rx="4" class="track" />
  <rect x="500.3" y="66.0" width="34" height="76.0" rx="4" class="bar-peak" />
  <text x="517.3" y="160" text-anchor="middle" class="day-text-peak">Tue</text>
  <text x="573.7" y="97.5" text-anchor="middle" class="val-text" style="fill: #9E9E9E;">95</text>
  <rect x="556.7" y="66" width="34" height="76" rx="4" class="track" />
  <rect x="556.7" y="102.5" width="34" height="39.5" rx="4" class="bar-normal" />
  <text x="573.7" y="160" text-anchor="middle" class="day-text">Wed</text>
  <text x="630.0" y="80.9" text-anchor="middle" class="val-text" style="fill: #9E9E9E;">135</text>
  <rect x="613.0" y="66" width="34" height="76" rx="4" class="track" />
  <rect x="613.0" y="85.9" width="34" height="56.1" rx="4" class="bar-normal" />
  <text x="630.0" y="160" text-anchor="middle" class="day-text">Thu</text>
  <text x="686.3" y="78.4" text-anchor="middle" class="val-text" style="fill: #9E9E9E;">141</text>
  <rect x="669.3" y="66" width="34" height="76" rx="4" class="track" />
  <rect x="669.3" y="83.4" width="34" height="58.6" rx="4" class="bar-normal" />
  <text x="686.3" y="160" text-anchor="middle" class="day-text">Fri</text>
  <text x="742.7" y="102.5" text-anchor="middle" class="val-text" style="fill: #9E9E9E;">83</text>
  <rect x="725.7" y="66" width="34" height="76" rx="4" class="track" />
  <rect x="725.7" y="107.5" width="34" height="34.5" rx="4" class="bar-normal" />
  <text x="742.7" y="160" text-anchor="middle" class="day-text">Sat</text>
  <text x="799.0" y="92.6" text-anchor="middle" class="val-text" style="fill: #9E9E9E;">107</text>
  <rect x="782.0" y="66" width="34" height="76" rx="4" class="track" />
  <rect x="782.0" y="97.6" width="34" height="44.4" rx="4" class="bar-normal" />
  <text x="799.0" y="160" text-anchor="middle" class="day-text">Sun</text>
</svg>